<svg id="visual" viewBox="0 0 960 540" width="960" height="540" xmlns="http://www.w3.org/2000/svg" xmlns:xlink="http://www.w3.org/1999/xlink" version="1.1"><path d="M0 33L8.8 31.3C17.7 29.7 35.3 26.3 53.2 25.5C71 24.7 89 26.3 106.8 27.2C124.7 28 142.3 28 160 27.2C177.7 26.3 195.3 24.7 213.2 24.7C231 24.7 249 26.3 266.8 28C284.7 29.7 302.3 31.3 320 30.5C337.7 29.7 355.3 26.3 373.2 26.3C391 26.3 409 29.7 426.8 29.7C444.7 29.7 462.3 26.3 480 26.3C497.7 26.3 515.3 29.7 533.2 31.3C551 33 569 33 586.8 33C604.7 33 622.3 33 640 32.2C657.7 31.3 675.3 29.7 693.2 28.8C711 28 729 28 746.8 28C764.7 28 782.3 28 800 28C817.7 28 835.3 28 853.2 28C871 28 889 28 906.8 28C924.7 28 942.3 28 951.2 28L960 28L960 0L951.2 0C942.3 0 924.7 0 906.8 0C889 0 871 0 853.2 0C835.3 0 817.7 0 800 0C782.3 0 764.7 0 746.8 0C729 0 711 0 693.2 0C675.3 0 657.7 0 640 0C622.3 0 604.7 0 586.8 0C569 0 551 0 533.2 0C515.3 0 497.7 0 480 0C462.3 0 444.7 0 426.8 0C409 0 391 0 373.2 0C355.3 0 337.7 0 320 0C302.3 0 284.7 0 266.8 0C249 0 231 0 213.2 0C195.3 0 177.7 0 160 0C142.3 0 124.7 0 106.8 0C89 0 71 0 53.2 0C35.3 0 17.7 0 8.8 0L0 0Z" fill="#004cbb"></path><path d="M0 60L8.8 58.3C17.7 56.7 35.3 53.3 53.2 51.7C71 50 89 50 106.8 50.8C124.7 51.7 142.3 53.3 160 53.3C177.7 53.3 195.3 51.7 213.2 51.7C231 51.7 249 53.3 266.8 55C284.7 56.7 302.3 58.3 320 56.5C337.7 54.7 355.3 49.3 373.2 49.3C391 49.3 409 54.7 426.8 55.7C444.7 56.7 462.3 53.3 480 52.5C497.7 51.7 515.3 53.3 533.2 55C551 56.7 569 58.3 586.8 59.2C604.7 60 622.3 60 640 58.3C657.7 56.7 675.3 53.3 693.2 52.5C711 51.7 729 53.3 746.8 53.3C764.7 53.3 782.3 51.7 800 50.8C817.7 50 835.3 50 853.2 50C871 50 889 50 906.8 50C924.7 50 942.3 50 951.2 50L960 50L960 26L951.2 26C942.3 26 924.7 26 906.8 26C889 26 871 26 853.2 26C835.3 26 817.7 26 800 26C782.3 26 764.7 26 746.8 26C729 26 711 26 693.2 26.8C675.3 27.7 657.7 29.3 640 30.2C622.3 31 604.7 31 586.8 31C569 31 551 31 533.2 29.3C515.3 27.7 497.7 24.3 480 24.3C462.3 24.3 444.7 27.7 426.8 27.7C409 27.7 391 24.3 373.2 24.3C355.3 24.3 337.7 27.7 320 28.5C302.3 29.3 284.7 27.7 266.8 26C249 24.3 231 22.7 213.2 22.7C195.3 22.7 177.7 24.3 160 25.2C142.3 26 124.7 26 106.8 25.2C89 24.3 71 22.7 53.2 23.5C35.3 24.3 17.7 27.7 8.8 29.3L0 31Z" fill="#005ae0"></path><path d="M0 98L8.8 97.2C17.7 96.3 35.3 94.7 53.2 94.7C71 94.7 89 96.3 106.8 96.3C124.7 96.3 142.3 94.7 160 92.8C177.7 91 195.3 89 213.2 91.7C231 94.3 249 101.7 266.8 104.5C284.7 107.3 302.3 105.7 320 103C337.7 100.3 355.3 96.7 373.2 97.5C391 98.3 409 103.7 426.8 103.7C444.7 103.7 462.3 98.3 480 97.5C497.7 96.7 515.3 100.3 533.2 103C551 105.7 569 107.3 586.8 106.3C604.7 105.3 622.3 101.7 640 99C657.7 96.3 675.3 94.7 693.2 94.7C711 94.7 729 96.3 746.8 95.3C764.7 94.3 782.3 90.7 800 90.7C817.7 90.7 835.3 94.3 853.2 96.2C871 98 889 98 906.8 98C924.7 98 942.3 98 951.2 98L960 98L960 48L951.2 48C942.3 48 924.7 48 906.8 48C889 48 871 48 853.2 48C835.3 48 817.7 48 800 48.8C782.3 49.7 764.7 51.3 746.8 51.3C729 51.3 711 49.7 693.2 50.5C675.3 51.3 657.7 54.7 640 56.3C622.3 58 604.7 58 586.8 57.2C569 56.3 551 54.7 533.2 53C515.3 51.3 497.7 49.7 480 50.5C462.3 51.3 444.7 54.7 426.8 53.7C409 52.7 391 47.3 373.2 47.3C355.3 47.3 337.7 52.7 320 54.5C302.3 56.3 284.7 54.7 266.8 53C249 51.3 231 49.7 213.2 49.7C195.3 49.7 177.7 51.3 160 51.3C142.3 51.3 124.7 49.7 106.8 48.8C89 48 71 48 53.2 49.7C35.3 51.3 17.7 54.7 8.8 56.3L0 58Z" fill="#156cff"></path><path d="M0 152L8.8 153.8C17.7 155.7 35.3 159.3 53.2 162C71 164.7 89 166.3 106.8 165.5C124.7 164.7 142.3 161.3 160 160.5C177.7 159.7 195.3 161.3 213.2 162.2C231 163 249 163 266.8 163C284.7 163 302.3 163 320 164.8C337.7 166.7 355.3 170.3 373.2 173C391 175.7 409 177.3 426.8 178.2C444.7 179 462.3 179 480 176.3C497.7 173.7 515.3 168.3 533.2 169.3C551 170.3 569 177.7 586.8 176.8C604.7 176 622.3 167 640 164.2C657.7 161.3 675.3 164.7 693.2 166.3C711 168 729 168 746.8 167.2C764.7 166.3 782.3 164.7 800 164.7C817.7 164.7 835.3 166.3 853.2 166.3C871 166.3 889 164.7 906.8 162C924.7 159.3 942.3 155.7 951.2 153.8L960 152L960 96L951.2 96C942.3 96 924.7 96 906.8 96C889 96 871 96 853.2 94.2C835.3 92.3 817.7 88.7 800 88.7C782.3 88.7 764.7 92.3 746.8 93.3C729 94.3 711 92.7 693.2 92.7C675.3 92.7 657.7 94.3 640 97C622.3 99.7 604.7 103.3 586.8 104.3C569 105.3 551 103.7 533.2 101C515.3 98.3 497.7 94.7 480 95.5C462.3 96.3 444.7 101.7 426.8 101.7C409 101.7 391 96.3 373.2 95.5C355.3 94.7 337.7 98.3 320 101C302.3 103.7 284.7 105.3 266.8 102.5C249 99.7 231 92.3 213.2 89.7C195.3 87 177.7 89 160 90.8C142.3 92.7 124.7 94.3 106.8 94.3C89 94.3 71 92.7 53.2 92.7C35.3 92.7 17.7 94.3 8.8 95.2L0 96Z" fill="#4988ff"></path><path d="M0 271L8.8 271.8C17.7 272.7 35.3 274.3 53.2 277C71 279.7 89 283.3 106.8 280.7C124.7 278 142.3 269 160 270C177.7 271 195.3 282 213.2 286.5C231 291 249 289 266.8 288C284.7 287 302.3 287 320 288C337.7 289 355.3 291 373.2 294.7C391 298.3 409 303.7 426.8 300.8C444.7 298 462.3 287 480 287C497.7 287 515.3 298 533.2 303.5C551 309 569 309 586.8 304.5C604.7 300 622.3 291 640 291C657.7 291 675.3 300 693.2 300.8C711 301.7 729 294.3 746.8 292.5C764.7 290.7 782.3 294.3 800 291.7C817.7 289 835.3 280 853.2 280C871 280 889 289 906.8 289.8C924.7 290.7 942.3 283.3 951.2 279.7L960 276L960 150L951.2 151.8C942.3 153.7 924.7 157.3 906.8 160C889 162.7 871 164.3 853.2 164.3C835.3 164.3 817.7 162.7 800 162.7C782.3 162.7 764.7 164.3 746.8 165.2C729 166 711 166 693.2 164.3C675.3 162.7 657.7 159.3 640 162.2C622.3 165 604.7 174 586.8 174.8C569 175.7 551 168.3 533.2 167.3C515.3 166.3 497.7 171.7 480 174.3C462.3 177 444.7 177 426.8 176.2C409 175.3 391 173.7 373.2 171C355.3 168.3 337.7 164.7 320 162.8C302.3 161 284.7 161 266.8 161C249 161 231 161 213.2 160.2C195.3 159.3 177.7 157.7 160 158.5C142.3 159.3 124.7 162.7 106.8 163.5C89 164.3 71 162.7 53.2 160C35.3 157.3 17.7 153.7 8.8 151.8L0 150Z" fill="#6198ff"></path><path d="M0 320L8.8 320.8C17.7 321.7 35.3 323.3 53.2 326.8C71 330.3 89 335.7 106.8 335.7C124.7 335.7 142.3 330.3 160 329.5C177.7 328.7 195.3 332.3 213.2 335C231 337.7 249 339.3 266.8 340.2C284.7 341 302.3 341 320 341C337.7 341 355.3 341 373.2 344.7C391 348.3 409 355.7 426.8 352.2C444.7 348.7 462.3 334.3 480 333.3C497.7 332.3 515.3 344.7 533.2 350C551 355.3 569 353.7 586.8 348.3C604.7 343 622.3 334 640 334C657.7 334 675.3 343 693.2 344.8C711 346.7 729 341.3 746.8 339.5C764.7 337.7 782.3 339.3 800 335.7C817.7 332 835.3 323 853.2 323C871 323 889 332 906.8 333C924.7 334 942.3 327 951.2 323.5L960 320L960 274L951.2 277.7C942.3 281.3 924.7 288.7 906.8 287.8C889 287 871 278 853.2 278C835.3 278 817.7 287 800 289.7C782.3 292.3 764.7 288.7 746.8 290.5C729 292.3 711 299.7 693.2 298.8C675.3 298 657.7 289 640 289C622.3 289 604.7 298 586.8 302.5C569 307 551 307 533.2 301.5C515.3 296 497.7 285 480 285C462.3 285 444.7 296 426.8 298.8C409 301.7 391 296.3 373.2 292.7C355.3 289 337.7 287 320 286C302.3 285 284.7 285 266.8 286C249 287 231 289 213.2 284.5C195.3 280 177.7 269 160 268C142.3 267 124.7 276 106.8 278.7C89 281.3 71 277.7 53.2 275C35.3 272.3 17.7 270.7 8.8 269.8L0 269Z" fill="#6198ff"></path><path d="M0 352L8.8 352.8C17.7 353.7 35.3 355.3 53.2 359C71 362.7 89 368.3 106.8 367.5C124.7 366.7 142.3 359.3 160 357.5C177.7 355.7 195.3 359.3 213.2 362C231 364.7 249 366.3 266.8 368.2C284.7 370 302.3 372 320 373C337.7 374 355.3 374 373.2 377.5C391 381 409 388 426.8 383.5C444.7 379 462.3 363 480 361.2C497.7 359.3 515.3 371.7 533.2 377C551 382.3 569 380.7 586.8 376.2C604.7 371.7 622.3 364.3 640 365.2C657.7 366 675.3 375 693.2 376C711 377 729 370 746.8 368.3C764.7 366.7 782.3 370.3 800 367.7C817.7 365 835.3 356 853.2 355C871 354 889 361 906.8 361.8C924.7 362.7 942.3 357.3 951.2 354.7L960 352L960 318L951.2 321.5C942.3 325 924.7 332 906.8 331C889 330 871 321 853.2 321C835.3 321 817.7 330 800 333.7C782.3 337.3 764.7 335.7 746.8 337.5C729 339.3 711 344.7 693.2 342.8C675.3 341 657.7 332 640 332C622.3 332 604.7 341 586.8 346.3C569 351.7 551 353.3 533.2 348C515.3 342.7 497.7 330.3 480 331.3C462.3 332.3 444.7 346.7 426.8 350.2C409 353.7 391 346.3 373.2 342.7C355.3 339 337.7 339 320 339C302.3 339 284.7 339 266.8 338.2C249 337.3 231 335.7 213.2 333C195.3 330.3 177.7 326.7 160 327.5C142.3 328.3 124.7 333.7 106.8 333.7C89 333.7 71 328.3 53.2 324.8C35.3 321.3 17.7 319.7 8.8 318.8L0 318Z" fill="#4988ff"></path><path d="M0 465L8.8 466.8C17.7 468.7 35.3 472.3 53.2 474.2C71 476 89 476 106.8 476C124.7 476 142.3 476 160 475.2C177.7 474.3 195.3 472.7 213.2 473.7C231 474.7 249 478.3 266.8 477.3C284.7 476.3 302.3 470.7 320 468.8C337.7 467 355.3 469 373.2 471.8C391 474.7 409 478.3 426.8 478.3C444.7 478.3 462.3 474.7 480 473.7C497.7 472.7 515.3 474.3 533.2 473.3C551 472.3 569 468.7 586.8 468.7C604.7 468.7 622.3 472.3 640 473.3C657.7 474.3 675.3 472.7 693.2 470.8C711 469 729 467 746.8 467.8C764.7 468.7 782.3 472.3 800 474.2C817.7 476 835.3 476 853.2 477C871 478 889 480 906.8 478.2C924.7 476.3 942.3 470.7 951.2 467.8L960 465L960 350L951.2 352.7C942.3 355.3 924.7 360.7 906.8 359.8C889 359 871 352 853.2 353C835.3 354 817.7 363 800 365.7C782.3 368.3 764.7 364.7 746.8 366.3C729 368 711 375 693.2 374C675.3 373 657.7 364 640 363.2C622.3 362.3 604.7 369.7 586.8 374.2C569 378.7 551 380.3 533.2 375C515.3 369.7 497.7 357.3 480 359.2C462.3 361 444.7 377 426.8 381.5C409 386 391 379 373.2 375.5C355.3 372 337.7 372 320 371C302.3 370 284.7 368 266.8 366.2C249 364.3 231 362.7 213.2 360C195.3 357.3 177.7 353.7 160 355.5C142.3 357.3 124.7 364.7 106.8 365.5C89 366.3 71 360.7 53.2 357C35.3 353.3 17.7 351.7 8.8 350.8L0 350Z" fill="#156cff"></path><path d="M0 509L8.8 509.8C17.7 510.7 35.3 512.3 53.2 512.3C71 512.3 89 510.7 106.8 509.8C124.7 509 142.3 509 160 509C177.7 509 195.3 509 213.2 509.8C231 510.7 249 512.3 266.8 511.3C284.7 510.3 302.3 506.7 320 505.8C337.7 505 355.3 507 373.2 508.8C391 510.7 409 512.3 426.8 512.3C444.7 512.3 462.3 510.7 480 510.7C497.7 510.7 515.3 512.3 533.2 512.3C551 512.3 569 510.7 586.8 509.8C604.7 509 622.3 509 640 509.8C657.7 510.7 675.3 512.3 693.2 512.3C711 512.3 729 510.7 746.8 509.8C764.7 509 782.3 509 800 509.8C817.7 510.7 835.3 512.3 853.2 513.2C871 514 889 514 906.8 512.2C924.7 510.3 942.3 506.7 951.2 504.8L960 503L960 463L951.2 465.8C942.3 468.7 924.7 474.3 906.8 476.2C889 478 871 476 853.2 475C835.3 474 817.7 474 800 472.2C782.3 470.3 764.7 466.7 746.8 465.8C729 465 711 467 693.2 468.8C675.3 470.7 657.7 472.3 640 471.3C622.3 470.3 604.7 466.7 586.8 466.7C569 466.7 551 470.3 533.2 471.3C515.3 472.3 497.7 470.7 480 471.7C462.3 472.7 444.7 476.3 426.8 476.3C409 476.3 391 472.7 373.2 469.8C355.3 467 337.7 465 320 466.8C302.3 468.7 284.7 474.3 266.8 475.3C249 476.3 231 472.7 213.2 471.7C195.3 470.7 177.7 472.3 160 473.2C142.3 474 124.7 474 106.8 474C89 474 71 474 53.2 472.2C35.3 470.3 17.7 466.7 8.8 464.8L0 463Z" fill="#005ae0"></path><path d="M0 541L8.8 541C17.7 541 35.3 541 53.2 541C71 541 89 541 106.8 541C124.7 541 142.3 541 160 541C177.7 541 195.3 541 213.2 541C231 541 249 541 266.8 541C284.7 541 302.3 541 320 541C337.7 541 355.3 541 373.2 541C391 541 409 541 426.8 541C444.7 541 462.3 541 480 541C497.7 541 515.3 541 533.2 541C551 541 569 541 586.8 541C604.7 541 622.3 541 640 541C657.7 541 675.3 541 693.2 541C711 541 729 541 746.8 541C764.7 541 782.3 541 800 541C817.7 541 835.3 541 853.2 541C871 541 889 541 906.8 541C924.7 541 942.3 541 951.2 541L960 541L960 501L951.2 502.8C942.3 504.7 924.7 508.3 906.8 510.2C889 512 871 512 853.2 511.2C835.3 510.3 817.7 508.7 800 507.8C782.3 507 764.7 507 746.8 507.8C729 508.7 711 510.3 693.2 510.3C675.3 510.3 657.7 508.7 640 507.8C622.3 507 604.7 507 586.8 507.8C569 508.7 551 510.3 533.2 510.3C515.3 510.3 497.7 508.7 480 508.7C462.3 508.7 444.7 510.3 426.8 510.3C409 510.3 391 508.7 373.2 506.8C355.3 505 337.7 503 320 503.8C302.3 504.7 284.7 508.3 266.8 509.3C249 510.3 231 508.7 213.2 507.8C195.3 507 177.7 507 160 507C142.3 507 124.7 507 106.8 507.8C89 508.7 71 510.3 53.2 510.3C35.3 510.3 17.7 508.7 8.8 507.8L0 507Z" fill="#004cbb"></path></svg>