<svg id="visual" viewBox="0 0 900 600" width="900" height="600" xmlns="http://www.w3.org/2000/svg" xmlns:xlink="http://www.w3.org/1999/xlink" version="1.1"><rect x="0" y="0" width="900" height="600" fill="#001220"></rect><defs><linearGradient id="grad1_0" x1="33.3%" y1="100%" x2="100%" y2="0%"><stop offset="20%" stop-color="#fbae3c" stop-opacity="1"></stop><stop offset="80%" stop-color="#fbae3c" stop-opacity="1"></stop></linearGradient></defs><defs><linearGradient id="grad1_1" x1="33.3%" y1="100%" x2="100%" y2="0%"><stop offset="20%" stop-color="#fbae3c" stop-opacity="1"></stop><stop offset="80%" stop-color="#f48350" stop-opacity="1"></stop></linearGradient></defs><defs><linearGradient id="grad1_2" x1="33.3%" y1="100%" x2="100%" y2="0%"><stop offset="20%" stop-color="#d96162" stop-opacity="1"></stop><stop offset="80%" stop-color="#f48350" stop-opacity="1"></stop></linearGradient></defs><defs><linearGradient id="grad1_3" x1="33.3%" y1="100%" x2="100%" y2="0%"><stop offset="20%" stop-color="#d96162" stop-opacity="1"></stop><stop offset="80%" stop-color="#af4b6d" stop-opacity="1"></stop></linearGradient></defs><defs><linearGradient id="grad1_4" x1="33.3%" y1="100%" x2="100%" y2="0%"><stop offset="20%" stop-color="#7c3e6b" stop-opacity="1"></stop><stop offset="80%" stop-color="#af4b6d" stop-opacity="1"></stop></linearGradient></defs><defs><linearGradient id="grad1_5" x1="33.3%" y1="100%" x2="100%" y2="0%"><stop offset="20%" stop-color="#7c3e6b" stop-opacity="1"></stop><stop offset="80%" stop-color="#49335c" stop-opacity="1"></stop></linearGradient></defs><defs><linearGradient id="grad1_6" x1="33.3%" y1="100%" x2="100%" y2="0%"><stop offset="20%" stop-color="#1d2540" stop-opacity="1"></stop><stop offset="80%" stop-color="#49335c" stop-opacity="1"></stop></linearGradient></defs><defs><linearGradient id="grad1_7" x1="33.3%" y1="100%" x2="100%" y2="0%"><stop offset="20%" stop-color="#1d2540" stop-opacity="1"></stop><stop offset="80%" stop-color="#001220" stop-opacity="1"></stop></linearGradient></defs><defs><linearGradient id="grad2_0" x1="0%" y1="100%" x2="66.7%" y2="0%"><stop offset="20%" stop-color="#fbae3c" stop-opacity="1"></stop><stop offset="80%" stop-color="#fbae3c" stop-opacity="1"></stop></linearGradient></defs><defs><linearGradient id="grad2_1" x1="0%" y1="100%" x2="66.7%" y2="0%"><stop offset="20%" stop-color="#f48350" stop-opacity="1"></stop><stop offset="80%" stop-color="#fbae3c" stop-opacity="1"></stop></linearGradient></defs><defs><linearGradient id="grad2_2" x1="0%" y1="100%" x2="66.7%" y2="0%"><stop offset="20%" stop-color="#f48350" stop-opacity="1"></stop><stop offset="80%" stop-color="#d96162" stop-opacity="1"></stop></linearGradient></defs><defs><linearGradient id="grad2_3" x1="0%" y1="100%" x2="66.7%" y2="0%"><stop offset="20%" stop-color="#af4b6d" stop-opacity="1"></stop><stop offset="80%" stop-color="#d96162" stop-opacity="1"></stop></linearGradient></defs><defs><linearGradient id="grad2_4" x1="0%" y1="100%" x2="66.7%" y2="0%"><stop offset="20%" stop-color="#af4b6d" stop-opacity="1"></stop><stop offset="80%" stop-color="#7c3e6b" stop-opacity="1"></stop></linearGradient></defs><defs><linearGradient id="grad2_5" x1="0%" y1="100%" x2="66.7%" y2="0%"><stop offset="20%" stop-color="#49335c" stop-opacity="1"></stop><stop offset="80%" stop-color="#7c3e6b" stop-opacity="1"></stop></linearGradient></defs><defs><linearGradient id="grad2_6" x1="0%" y1="100%" x2="66.7%" y2="0%"><stop offset="20%" stop-color="#49335c" stop-opacity="1"></stop><stop offset="80%" stop-color="#1d2540" stop-opacity="1"></stop></linearGradient></defs><defs><linearGradient id="grad2_7" x1="0%" y1="100%" x2="66.7%" y2="0%"><stop offset="20%" stop-color="#001220" stop-opacity="1"></stop><stop offset="80%" stop-color="#1d2540" stop-opacity="1"></stop></linearGradient></defs><g transform="translate(900, 600)"><path d="M-365 0C-322.1 -21.3 -279.1 -42.6 -277.2 -74.3C-275.3 -106 -314.4 -148.1 -316.1 -182.5C-317.8 -216.9 -282 -243.6 -242.5 -242.5C-203.1 -241.5 -159.9 -212.6 -138.5 -239.9C-117.1 -267.2 -117.4 -350.6 -98 -365.7C-78.5 -380.7 -39.3 -327.4 0 -274L0 0Z" fill="#0c1c30"></path><path d="M-319.4 0C-281.8 -18.6 -244.2 -37.3 -242.6 -65C-240.9 -92.7 -275.1 -129.6 -276.6 -159.7C-278.1 -189.8 -246.8 -213.2 -212.2 -212.2C-177.7 -211.3 -139.9 -186 -121.2 -209.9C-102.5 -233.8 -102.8 -306.8 -85.7 -320C-68.7 -333.1 -34.4 -286.4 0 -239.7L0 0Z" fill="#312c4f"></path><path d="M-273.7 0C-241.5 -16 -209.3 -31.9 -207.9 -55.7C-206.5 -79.5 -235.8 -111.1 -237.1 -136.9C-238.3 -162.7 -211.5 -182.7 -181.9 -181.9C-152.3 -181.1 -119.9 -159.4 -103.9 -179.9C-87.8 -200.4 -88.1 -263 -73.5 -274.3C-58.9 -285.5 -29.4 -245.5 0 -205.5L0 0Z" fill="#623965"></path><path d="M-228.1 0C-201.3 -13.3 -174.5 -26.6 -173.3 -46.4C-172.1 -66.2 -196.5 -92.6 -197.6 -114.1C-198.6 -135.6 -176.3 -152.3 -151.6 -151.6C-126.9 -150.9 -99.9 -132.9 -86.6 -149.9C-73.2 -167 -73.4 -219.1 -61.2 -228.6C-49.1 -238 -24.5 -204.6 0 -171.2L0 0Z" fill="#96446e"></path><path d="M-182.5 0C-161 -10.6 -139.6 -21.3 -138.6 -37.1C-137.7 -53 -157.2 -74 -158 -91.3C-158.9 -108.5 -141 -121.8 -121.3 -121.3C-101.5 -120.7 -80 -106.3 -69.3 -119.9C-58.5 -133.6 -58.7 -175.3 -49 -182.8C-39.3 -190.4 -19.6 -163.7 0 -137L0 0Z" fill="#c55469"></path><path d="M-136.9 0C-120.8 -8 -104.7 -16 -104 -27.9C-103.2 -39.7 -117.9 -55.5 -118.5 -68.4C-119.2 -81.3 -105.8 -91.4 -91 -91C-76.2 -90.5 -60 -79.7 -51.9 -90C-43.9 -100.2 -44 -131.5 -36.7 -137.1C-29.4 -142.8 -14.7 -122.8 0 -102.7L0 0Z" fill="#e9705a"></path><path d="M-91.2 0C-80.5 -5.3 -69.8 -10.6 -69.3 -18.6C-68.8 -26.5 -78.6 -37 -79 -45.6C-79.4 -54.2 -70.5 -60.9 -60.6 -60.6C-50.8 -60.4 -40 -53.1 -34.6 -60C-29.3 -66.8 -29.4 -87.7 -24.5 -91.4C-19.6 -95.2 -9.8 -81.8 0 -68.5L0 0Z" fill="#fa9845"></path><path d="M-45.6 0C-40.3 -2.7 -34.9 -5.3 -34.7 -9.3C-34.4 -13.2 -39.3 -18.5 -39.5 -22.8C-39.7 -27.1 -35.3 -30.5 -30.3 -30.3C-25.4 -30.2 -20 -26.6 -17.3 -30C-14.6 -33.4 -14.7 -43.8 -12.2 -45.7C-9.8 -47.6 -4.9 -40.9 0 -34.2L0 0Z" fill="#fbae3c"></path></g><g transform="translate(0, 0)"><path d="M336 0C298.9 19.1 261.8 38.1 265.6 71.2C269.4 104.2 314.2 151.3 310 179C305.9 206.7 252.9 215.1 213.5 213.5C174.2 212 148.4 200.5 134.5 233C120.6 265.4 118.4 341.8 98 365.7C77.5 389.5 38.8 360.8 0 332L0 0Z" fill="#0c1c30"></path><path d="M294 0C261.5 16.7 229.1 33.4 232.4 62.3C235.8 91.2 274.9 132.4 271.3 156.6C267.7 180.9 221.3 188.2 186.9 186.9C152.4 185.5 129.9 175.4 117.7 203.8C105.5 232.2 103.6 299.1 85.7 320C67.8 340.8 33.9 315.7 0 290.5L0 0Z" fill="#312c4f"></path><path d="M252 0C224.2 14.3 196.4 28.6 199.2 53.4C202.1 78.2 235.6 113.5 232.5 134.2C229.4 155 189.7 161.3 160.2 160.2C130.6 159 111.3 150.4 100.9 174.7C90.4 199.1 88.8 256.4 73.5 274.3C58.2 292.1 29.1 270.6 0 249L0 0Z" fill="#623965"></path><path d="M210 0C186.8 11.9 163.6 23.8 166 44.5C168.4 65.1 196.4 94.6 193.8 111.9C191.2 129.2 158.1 134.4 133.5 133.5C108.9 132.5 92.8 125.3 84.1 145.6C75.4 165.9 74 213.7 61.2 228.6C48.5 243.4 24.2 225.5 0 207.5L0 0Z" fill="#96446e"></path><path d="M168 0C149.5 9.5 130.9 19.1 132.8 35.6C134.7 52.1 157.1 75.6 155 89.5C153 103.4 126.5 107.6 106.8 106.8C87.1 106 74.2 100.2 67.3 116.5C60.3 132.7 59.2 170.9 49 182.8C38.8 194.8 19.4 180.4 0 166L0 0Z" fill="#c55469"></path><path d="M126 0C112.1 7.1 98.2 14.3 99.6 26.7C101 39.1 117.8 56.7 116.3 67.1C114.7 77.5 94.8 80.7 80.1 80.1C65.3 79.5 55.7 75.2 50.4 87.4C45.2 99.5 44.4 128.2 36.7 137.1C29.1 146.1 14.5 135.3 0 124.5L0 0Z" fill="#e9705a"></path><path d="M84 0C74.7 4.8 65.5 9.5 66.4 17.8C67.4 26.1 78.5 37.8 77.5 44.7C76.5 51.7 63.2 53.8 53.4 53.4C43.5 53 37.1 50.1 33.6 58.2C30.1 66.4 29.6 85.5 24.5 91.4C19.4 97.4 9.7 90.2 0 83L0 0Z" fill="#fa9845"></path><path d="M42 0C37.4 2.4 32.7 4.8 33.2 8.9C33.7 13 39.3 18.9 38.8 22.4C38.2 25.8 31.6 26.9 26.7 26.7C21.8 26.5 18.6 25.1 16.8 29.1C15.1 33.2 14.8 42.7 12.2 45.7C9.7 48.7 4.8 45.1 0 41.5L0 0Z" fill="#fbae3c"></path></g></svg>